<svg xmlns="http://www.w3.org/2000/svg" xmlns:xlink="http://www.w3.org/1999/xlink" width="144" zoomAndPan="magnify" viewBox="0 0 108 107.999999" height="144" preserveAspectRatio="xMidYMid meet" version="1.0"><defs><clipPath id="f9584a2e27"><path d="M 1 7.703125 L 106.6875 7.703125 L 106.6875 79 L 1 79 Z M 1 7.703125 " clip-rule="nonzero"/></clipPath><clipPath id="cfff75675d"><path d="M 31 86 L 77 86 L 77 99.953125 L 31 99.953125 Z M 31 86 " clip-rule="nonzero"/></clipPath><clipPath id="410402b089"><path d="M 48.441406 69.46875 L 59.691406 69.46875 L 59.691406 72.46875 L 48.441406 72.46875 Z M 48.441406 69.46875 " clip-rule="nonzero"/></clipPath></defs><g clip-path="url(#f9584a2e27)"><path fill="#ffffff" d="M 8.003906 10.628906 C 5.816406 10.628906 4.03125 12.410156 4.03125 14.597656 L 4.03125 71.097656 C 4.03125 73.292969 5.816406 75.066406 8.003906 75.066406 L 100.136719 75.066406 C 102.324219 75.066406 104.105469 73.292969 104.105469 71.097656 L 104.105469 14.597656 C 104.105469 12.410156 102.324219 10.628906 100.136719 10.628906 Z M 100.136719 78.039062 L 8.003906 78.039062 C 4.175781 78.039062 1.058594 74.929688 1.058594 71.097656 L 1.058594 14.597656 C 1.058594 10.773438 4.175781 7.65625 8.003906 7.65625 L 100.136719 7.65625 C 103.960938 7.65625 107.078125 10.773438 107.078125 14.597656 L 107.078125 71.097656 C 107.078125 74.929688 103.960938 78.039062 100.136719 78.039062 " fill-opacity="1" fill-rule="nonzero"/></g><path fill="#ffffff" d="M 105.59375 65.84375 L 2.546875 65.84375 L 2.546875 62.871094 L 105.59375 62.871094 L 105.59375 65.84375 " fill-opacity="1" fill-rule="nonzero"/><path fill="#ffffff" d="M 42.648438 88.390625 L 39.730469 87.835938 L 41.949219 76.277344 L 44.863281 76.832031 L 42.648438 88.390625 " fill-opacity="1" fill-rule="nonzero"/><path fill="#ffffff" d="M 65.5 88.390625 L 63.289062 76.832031 L 66.203125 76.277344 L 68.421875 87.835938 L 65.5 88.390625 " fill-opacity="1" fill-rule="nonzero"/><g clip-path="url(#cfff75675d)"><path fill="#ffffff" d="M 38.058594 89.597656 C 35.957031 89.597656 34.25 91.304688 34.25 93.40625 C 34.25 95.507812 35.957031 97.222656 38.058594 97.222656 L 70.082031 97.222656 C 72.183594 97.222656 73.890625 95.507812 73.890625 93.40625 C 73.890625 91.304688 72.183594 89.597656 70.082031 89.597656 Z M 70.082031 100.195312 L 38.058594 100.195312 C 34.320312 100.195312 31.277344 97.152344 31.277344 93.40625 C 31.277344 89.667969 34.320312 86.625 38.058594 86.625 L 70.082031 86.625 C 73.820312 86.625 76.863281 89.667969 76.863281 93.40625 C 76.863281 97.152344 73.820312 100.195312 70.082031 100.195312 " fill-opacity="1" fill-rule="nonzero"/></g><path fill="#ffffff" d="M 44.480469 49.484375 C 44.089844 49.484375 43.699219 49.332031 43.410156 49.03125 C 43.375 48.988281 37.101562 42.34375 35.207031 40.339844 C 34.371094 39.457031 34.371094 38.0625 35.207031 37.175781 L 43.398438 28.496094 C 43.96875 27.898438 44.902344 27.871094 45.5 28.4375 C 46.097656 29 46.128906 29.941406 45.566406 30.539062 L 37.800781 38.761719 C 40.050781 41.140625 45.453125 46.863281 45.558594 46.976562 C 46.121094 47.566406 46.097656 48.507812 45.507812 49.070312 C 45.214844 49.351562 44.851562 49.484375 44.480469 49.484375 " fill-opacity="1" fill-rule="nonzero"/><path fill="#ffffff" d="M 70.765625 39.214844 L 70.785156 39.214844 Z M 63.660156 49.484375 C 63.289062 49.484375 62.921875 49.351562 62.632812 49.070312 C 62.039062 48.507812 62.015625 47.566406 62.582031 46.976562 C 62.683594 46.863281 68.089844 41.136719 70.335938 38.761719 L 62.574219 30.539062 C 62.011719 29.941406 62.039062 29 62.636719 28.4375 C 63.238281 27.871094 64.171875 27.898438 64.738281 28.496094 L 72.929688 37.175781 C 73.765625 38.0625 73.765625 39.457031 72.929688 40.339844 C 71.039062 42.34375 64.761719 48.988281 64.726562 49.03125 C 64.4375 49.332031 64.050781 49.484375 63.660156 49.484375 " fill-opacity="1" fill-rule="nonzero"/><path fill="#ffffff" d="M 51.132812 52.320312 C 51.015625 52.320312 50.894531 52.3125 50.777344 52.28125 C 49.976562 52.089844 49.488281 51.28125 49.679688 50.488281 L 55.566406 26.324219 C 55.765625 25.53125 56.566406 25.035156 57.359375 25.234375 C 58.164062 25.429688 58.648438 26.234375 58.457031 27.035156 L 52.570312 51.191406 C 52.410156 51.871094 51.800781 52.320312 51.132812 52.320312 " fill-opacity="1" fill-rule="nonzero"/><g clip-path="url(#410402b089)"><path fill="#ffffff" d="M 51.410156 71.699219 C 51.441406 71.78125 51.394531 71.871094 51.3125 71.894531 C 51.148438 71.945312 50.96875 71.96875 50.761719 71.96875 C 50.503906 71.96875 50.289062 71.875 50.132812 71.6875 C 49.976562 71.503906 49.894531 71.261719 49.894531 70.96875 C 49.894531 70.679688 49.972656 70.441406 50.125 70.261719 C 50.296875 70.066406 50.535156 69.960938 50.835938 69.960938 C 51 69.960938 51.15625 69.984375 51.296875 70.023438 C 51.386719 70.050781 51.429688 70.144531 51.398438 70.230469 C 51.367188 70.304688 51.289062 70.339844 51.214844 70.320312 C 51.097656 70.289062 50.976562 70.273438 50.84375 70.273438 C 50.621094 70.273438 50.460938 70.351562 50.359375 70.515625 C 50.28125 70.636719 50.242188 70.792969 50.242188 70.980469 C 50.242188 71.148438 50.285156 71.300781 50.371094 71.425781 C 50.476562 71.585938 50.621094 71.664062 50.8125 71.664062 C 50.960938 71.664062 51.09375 71.644531 51.214844 71.605469 C 51.292969 71.582031 51.375 71.621094 51.402344 71.695312 Z M 53.128906 70.25 C 53.304688 70.445312 53.394531 70.6875 53.394531 70.96875 C 53.394531 71.253906 53.304688 71.496094 53.128906 71.6875 C 52.953125 71.882812 52.722656 71.980469 52.441406 71.980469 C 52.160156 71.980469 51.929688 71.878906 51.75 71.6875 C 51.574219 71.496094 51.484375 71.253906 51.484375 70.96875 C 51.484375 70.6875 51.574219 70.445312 51.75 70.25 C 51.929688 70.054688 52.160156 69.957031 52.441406 69.957031 C 52.71875 69.957031 52.953125 70.054688 53.128906 70.25 Z M 53.058594 70.964844 C 53.058594 70.765625 53 70.597656 52.882812 70.460938 C 52.773438 70.328125 52.625 70.261719 52.4375 70.261719 C 52.253906 70.261719 52.105469 70.328125 51.992188 70.460938 C 51.878906 70.597656 51.820312 70.765625 51.820312 70.964844 C 51.820312 71.167969 51.878906 71.335938 51.992188 71.46875 C 52.105469 71.605469 52.25 71.667969 52.4375 71.667969 C 52.625 71.667969 52.769531 71.605469 52.882812 71.46875 C 53 71.335938 53.058594 71.167969 53.058594 70.964844 Z M 54.886719 70.273438 C 55.019531 70.4375 55.085938 70.65625 55.085938 70.929688 C 55.085938 71.21875 55.015625 71.457031 54.875 71.632812 C 54.699219 71.847656 54.429688 71.960938 54.070312 71.960938 C 53.992188 71.960938 53.875 71.953125 53.722656 71.9375 C 53.621094 71.929688 53.542969 71.84375 53.542969 71.738281 L 53.542969 70.203125 C 53.542969 70.101562 53.621094 70.011719 53.722656 70.003906 C 53.925781 69.984375 54.0625 69.972656 54.148438 69.972656 C 54.476562 69.972656 54.722656 70.074219 54.886719 70.273438 Z M 54.738281 70.929688 C 54.738281 70.492188 54.539062 70.277344 54.132812 70.277344 C 54.070312 70.277344 53.96875 70.285156 53.839844 70.296875 L 53.839844 71.640625 C 53.917969 71.644531 54.007812 71.652344 54.113281 71.652344 C 54.347656 71.652344 54.515625 71.570312 54.621094 71.40625 C 54.699219 71.28125 54.738281 71.121094 54.738281 70.929688 Z M 56.234375 69.992188 L 55.390625 69.992188 C 55.277344 69.992188 55.1875 70.082031 55.1875 70.195312 L 55.1875 71.742188 C 55.1875 71.855469 55.277344 71.945312 55.390625 71.945312 L 56.234375 71.945312 C 56.316406 71.945312 56.386719 71.875 56.386719 71.789062 C 56.386719 71.703125 56.320312 71.636719 56.234375 71.636719 L 55.53125 71.636719 L 55.53125 71.070312 L 56.136719 71.070312 C 56.222656 71.070312 56.292969 71 56.292969 70.914062 C 56.292969 70.832031 56.222656 70.761719 56.136719 70.761719 L 55.527344 70.761719 L 55.527344 70.296875 L 56.230469 70.296875 C 56.316406 70.296875 56.386719 70.226562 56.386719 70.140625 C 56.386719 70.058594 56.316406 69.992188 56.234375 69.992188 Z M 49.574219 70.007812 C 49.503906 69.9375 49.386719 69.9375 49.316406 70.007812 L 48.554688 70.773438 C 48.445312 70.882812 48.445312 71.054688 48.554688 71.164062 L 49.320312 71.929688 C 49.390625 72 49.503906 72 49.574219 71.929688 C 49.644531 71.859375 49.644531 71.742188 49.574219 71.671875 L 48.871094 70.96875 L 49.574219 70.265625 C 49.644531 70.195312 49.644531 70.078125 49.574219 70.007812 Z M 59.4375 70.773438 L 58.671875 70.007812 C 58.601562 69.9375 58.488281 69.9375 58.417969 70.007812 C 58.34375 70.078125 58.34375 70.195312 58.417969 70.265625 L 59.121094 70.96875 L 58.417969 71.671875 C 58.34375 71.742188 58.34375 71.859375 58.417969 71.929688 C 58.488281 72 58.601562 72 58.671875 71.929688 L 59.4375 71.164062 C 59.542969 71.054688 59.542969 70.882812 59.4375 70.773438 Z M 57.980469 69.503906 C 57.886719 69.46875 57.78125 69.511719 57.746094 69.601562 L 56.671875 72.195312 C 56.632812 72.285156 56.675781 72.394531 56.769531 72.429688 C 56.859375 72.46875 56.96875 72.421875 57.003906 72.332031 L 58.078125 69.742188 C 58.117188 69.648438 58.074219 69.546875 57.980469 69.503906 Z M 57.980469 69.503906 " fill-opacity="1" fill-rule="nonzero"/></g></svg>